<svg width="120" height="90" viewBox="0 0 120 90" fill="none" xmlns="http://www.w3.org/2000/svg">
<g clip-path="url(#clip0_113_70)">
<path d="M59.32 87H46.24V73.8C45.2 77.24 43 80.52 39.64 83.64C36.36 86.68 32.32 88.2 27.52 88.2C19.84 88.2 13.68 85.52 9.04 80.16C4.48 74.72 2.2 67.12 2.2 57.36V33.48C2.2 23.64 4.72 16.12 9.76 10.92C14.88 5.64 20.88 2.99999 27.76 2.99999C30.64 2.99999 33.24 3.59999 35.56 4.79999C37.96 6 39.88 7.48 41.32 9.24C43.64 12.2 45.28 15.12 46.24 18V4.19999H59.32V87ZM46.12 59.76V30.84C46.12 24.92 44.56 19.52 41.44 14.64C38.32 9.68 34.16 7.2 28.96 7.2C26 7.2 23.48 7.96 21.4 9.48C19.4 11 18 13 17.2 15.48C15.84 19.56 15.16 23.52 15.16 27.36V63.36C15.16 70.4 16.48 75.6 19.12 78.96C21.76 82.32 25.48 84 30.28 84C35.08 84 38.92 81.6 41.8 76.8C44.68 71.92 46.12 66.24 46.12 59.76Z" fill="black"/>
<path d="M116.64 64.92C116.64 79.64 106.8 87 87.12 87H65.4V4.19999H84.12C95.16 4.19999 103 6.11999 107.64 9.96C111.64 13.24 113.64 18.2 113.64 24.84C113.64 30.04 112.4 34 109.92 36.72C107.52 39.44 103.8 41.6 98.76 43.2C104.52 44.96 108.92 47.56 111.96 51C115.08 54.36 116.64 59 116.64 64.92ZM101.28 24.12C101.28 17.16 99.24 12.68 95.16 10.68C91.64 9.08 86.8 8.28 80.64 8.28H78.36V41.64H83.16C95.24 41.64 101.28 35.8 101.28 24.12ZM82.56 82.92C90.08 82.92 95.52 81.44 98.88 78.48C102.32 75.44 104.04 70.72 104.04 64.32C104.04 57.84 102.32 53.04 98.88 49.92C95.52 46.72 91.24 45.12 86.04 45.12H78.36V82.92H82.56Z" fill="black"/>
</g>
<defs>
<clipPath id="clip0_113_70">
<rect width="120" height="90" fill="white"/>
</clipPath>
</defs>
</svg>
